PathFileType	4	(X/Y/Z)	C:\Users\u0145647\OneDrive - KU Leuven\KU Leuven\c3d2osim\CP4\T0\Data\Processed\ViconC3D_CP4_2\CP4_T0_09_gapFilled.trc
DataRate	CameraRate	NumFrames	NumMarkers	Units	OrigDataRate	OrigDataStartFrame	OrigNumFrames
100.000000	100.000000	9	47	mm	100.000000	395	631
Frame#	Time	C7			T10			CLAV			STRN			LSHO			RSHO			RBAK			LASI			RASI			LPSI			RPSI			LLAT			RLAT			LF1			LF2			LF3			LTHI			LKNE			LMEK			RF1			RF2			RF3			RTHI			RKNE			RMEK			LT1			LT2			LT3			LTIB			LANK			LMM			RT1			RT2			RT3			RTIB			RANK			RMM			LHEE			LSTL			LLCA			LTOE			LCM5			RHEE			RSTL			RLCA			RTOE			RCM5
		X1	Y1	Z1	X2	Y2	Z2	X3	Y3	Z3	X4	Y4	Z4	X5	Y5	Z5	X6	Y6	Z6	X7	Y7	Z7	X8	Y8	Z8	X9	Y9	Z9	X10	Y10	Z10	X11	Y11	Z11	X12	Y12	Z12	X13	Y13	Z13	X14	Y14	Z14	X15	Y15	Z15	X16	Y16	Z16	X17	Y17	Z17	X18	Y18	Z18	X19	Y19	Z19	X20	Y20	Z20	X21	Y21	Z21	X22	Y22	Z22	X23	Y23	Z23	X24	Y24	Z24	X25	Y25	Z25	X26	Y26	Z26	X27	Y27	Z27	X28	Y28	Z28	X29	Y29	Z29	X30	Y30	Z30	X31	Y31	Z31	X32	Y32	Z32	X33	Y33	Z33	X34	Y34	Z34	X35	Y35	Z35	X36	Y36	Z36	X37	Y37	Z37	X38	Y38	Z38	X39	Y39	Z39	X40	Y40	Z40	X41	Y41	Z41	X42	Y42	Z42	X43	Y43	Z43	X44	Y44	Z44	X45	Y45	Z45	X46	Y46	Z46	X47	Y47	Z47

395	3.94	1601.9	1441.1	-47.051	1576.5	1182.1	-89.429	1718.1	1361.7	-49.972	1753.1	1212.8	-57.405	1681.6	1412.1	-263.77	1644.5	1378.3	143.13	1560.8	1346.7	69.418	1771.3	930.08	-143.39	1706.7	928.85	46.317	1591	962.48	-141.32	1566.3	971.83	-71.714	1727.2	998.35	-214.08	1634.9	998.47	69.428	1842.1	703.29	-213.16	1809.4	735.97	-221.41	1815.2	684.49	-226.48	1869.6	626.11	-257.77	1917.3	513.23	-177.86	NaN	NaN	NaN	1638.9	645.39	55.384	1659.9	677.52	63.205	1599.8	679.93	52.786	1642.5	580.11	87.28	1669.1	461.32	7.2096	NaN	NaN	NaN	1885.8	336.66	-215.05	1921.8	378.22	-189.26	1876.3	380.72	-212.74	1952.8	272.53	-223.47	1884	96.374	-198.33	1885.1	105.08	-109.89	1598.1	327.69	21.803	1635.1	359.08	6.2826	1591.4	379.99	25.565	1591.1	252.74	59.009	1495.7	101.56	0.77688	1504.3	118.65	-85.741	1830.3	73.103	-159.27	1886.2	74.389	-114.35	1890.4	68.813	-192.71	2002.8	69.33	-137.89	2000.2	62.479	-182.76	1442.7	112.66	-35.732	1492.5	83.509	-82.528	1495.4	76.117	-3.3558	1609.6	47.219	-46.51	1586.4	32.94	7.841
396	3.95	1613	1439.9	-47.981	1587.1	1181.1	-90.608	1728.9	1360.1	-50.015	1763.3	1211	-56.945	1693.9	1410.2	-264.08	1654	1377	142.49	1570.3	1346	68.647	1781.9	928.73	-142.27	1715.9	927.65	46.865	1601.8	961.55	-141.58	1576.8	970.7	-72.578	1738.5	996.95	-213.49	1643.9	997.41	69.368	1853.1	702.56	-211.54	1820.7	735.34	-220.13	1826.5	683.8	-225.7	1881.6	625.91	-256.94	1928.9	512.8	-176.79	NaN	NaN	NaN	1646.7	644.34	55.321	1667.8	676.31	62.904	1607.7	679.08	52.392	1650	578.77	87.109	1675.5	459.94	6.9941	NaN	NaN	NaN	1905.3	334.75	-213.37	1939.1	378.37	-187.82	1893.7	378.36	-211.39	1975.5	274.28	-221.75	1915.9	95.013	-195.09	1916.3	103.91	-106.72	1602.6	327.28	21.463	1639.7	358.49	6.1005	1596.6	379.63	25.319	1594.7	252.46	58.565	1496.8	102.97	0.60503	1505.3	119.64	-85.969	1863.1	69.275	-156.73	1919.4	73.612	-111.19	1924.1	67.917	-189.45	2035.8	73.341	-134.31	2033.8	66.866	-179.49	1444	114.66	-36.087	1493.1	84.89	-82.902	1495.8	77.398	-3.8159	1609.9	47.266	-46.713	1586.6	33.26	7.5939
397	3.96	1624.2	1438.9	-48.758	1598	1179.7	-91.379	1739.7	1358.3	-50.085	1773.7	1209.2	-56.511	1706.5	1408.3	-264.42	1663.4	1375.6	141.95	1580.2	1344.7	67.678	1792.8	927.31	-141.14	1725.4	926.4	47.514	1612.7	960.32	-142.14	1587.1	969.84	-73.095	1750.1	995.35	-212.98	1653	996.26	69.392	1864.2	701.47	-210.18	1831.8	734.29	-219.01	1837.5	682.92	-225.09	1893.8	624.9	-255.68	1940	512.05	-175.84	NaN	NaN	NaN	1654.3	643.17	55.283	1675.6	675.12	62.876	1615.4	678.29	52.654	1657.4	577.79	87.012	1681.8	458.57	6.7605	NaN	NaN	NaN	1923.7	332.94	-211.48	1955.4	378.23	-186.63	1910.1	376.01	-209.87	1996.3	276.62	-219.97	1946.4	94.352	-191.57	1946.8	103.63	-103.1	1607	326.84	21.252	1644.6	357.51	5.933	1601.9	379.4	25.463	1598.3	252.09	58.408	1497.8	104.34	0.36453	1506.5	120.74	-86.346	1895.5	66.554	-152.32	1951.3	73.479	-107.46	1955.6	67.616	-185.93	2067.8	78.106	-131.76	2065.5	71.823	-176.89	1445.1	116.63	-36.206	1494	85.967	-83.083	1496.5	78.746	-3.9888	1610.1	47.306	-46.858	1586.8	33.643	7.3675
398	3.97	1635.4	1437.5	-49.64	1609	1178.2	-92.352	1750.7	1356.4	-50.197	1784.1	1207.2	-55.988	1719.1	1406.4	-264.88	1672.9	1374.1	141.44	1590.3	1343.1	66.057	1803.8	925.67	-139.94	1734.8	925.04	48.13	1623.7	959.2	-142.48	1597.6	968.63	-73.647	1761.6	993.55	-212.4	1662.3	995.13	69.389	1874.9	699.94	-208.82	1842.9	732.95	-218.1	1848.7	681.74	-224.72	1905.1	624.46	-255.3	1951	511.1	-175.12	NaN	NaN	NaN	1661.9	641.99	55.326	1683.3	674	63.04	1623.3	677.42	52.511	1664.6	576.57	87.185	1687.6	457.27	6.5044	NaN	NaN	NaN	1941.2	331.15	-209.51	1971	378.12	-185.58	1925.6	373.51	-208.24	2016.2	277.56	-218.74	1975	94.164	-187.73	1976.2	104.34	-99.05	1611.3	326.36	21.188	1649.3	356.4	5.8158	1606.9	378.82	25.446	1601.7	251.47	58.111	1498.7	105.6	0.34474	1507.6	121.91	-86.426	1925.9	64.561	-147.59	1982	73.855	-103.6	1985.7	68.16	-182.02	2098.1	83.233	-130.14	2095.1	76.969	-175.15	1446.2	118.56	-36.101	1495	87.07	-83.333	1497.1	79.811	-4.0155	1610.3	47.371	-47.041	1586.9	33.807	7.375
399	3.98	1646.7	1436.1	-50.655	1620	1176.8	-93.082	1761.8	1354.5	-50.363	1794.8	1205.3	-55.6	1731.6	1404.2	-265.34	1682.5	1372.6	140.64	1600.1	1341.9	65.254	1814.9	923.89	-138.79	1744.3	923.69	48.833	1634.8	957.77	-142.82	1608.3	967.37	-74.231	1773.4	991.66	-211.77	1671.5	993.69	69.275	1886	698.27	-208.35	1854.2	731.53	-217.44	1860	680.19	-224.6	1916.3	623.11	-254.67	1961.8	509.85	-174.4	NaN	NaN	NaN	1669.6	640.81	55.374	1691.3	672.84	63.018	1631.2	676.34	52.614	1672	575.44	87.322	1693.8	455.53	6.5144	NaN	NaN	NaN	1957.9	329.45	-207.57	1985.9	377.88	-184.65	1940.4	371.12	-206.5	2034.9	279.84	-217.21	2001.6	94.474	-183.82	2004.6	105.65	-95.258	1615.7	325.51	20.859	1653.9	355.33	5.7444	1611.8	378.28	25.551	1605	251.05	58.152	1499.8	106.61	0.47678	1508.6	122.96	-86.317	1954.5	63.39	-142.1	2011.4	75.086	-99.325	2013.7	68.726	-178.34	2126.5	88.467	-129.18	2122.3	81.837	-174.02	1447.6	120.43	-36.177	1495.3	88.382	-83.157	1498	80.852	-4.2487	1610.6	47.44	-47.278	1587.2	34.071	7.2351
400	3.99	1658.1	1434.7	-51.702	1630.9	1175.4	-94.547	1772.9	1352.7	-50.579	1805.6	1203.4	-55.158	1744.3	1402	-265.9	1691.9	1370.8	139.81	1610.2	1340.4	63.559	1826.1	922.03	-137.57	1754	922.3	49.469	1645.8	956.22	-143.07	1619	966.02	-74.763	1785.2	989.65	-211.16	1680.9	992.44	69.153	1897.1	696.48	-207.46	1865.6	729.93	-216.94	1871.1	678.25	-224.39	1927.7	620.99	-253.99	1972.2	508.4	-173.8	NaN	NaN	NaN	1677.4	639.67	55.508	1699.4	671.47	62.899	1639	675.64	52.88	1679.6	574.29	87.565	1699.8	454.06	6.4814	NaN	NaN	NaN	1973.7	327.72	-205.83	2000.4	377.1	-183.83	1954.6	368.46	-204.69	2052.3	279.95	-216.7	2026.3	94.749	-180.15	2030.1	106.6	-91.319	1619.9	324.85	20.862	1658.6	354.21	5.7393	1616.9	377.77	25.658	1608.5	250.6	58.079	1501	107.89	0.66685	1509.7	123.94	-86.278	1981.2	62.624	-136.88	2038.4	76.631	-95.62	2039.2	69.251	-173.83	2152.6	93.473	-128.56	2147.4	86.619	-173.25	1448.8	122.3	-35.869	1496	89.787	-82.974	1498.9	82.145	-3.8983	1610.9	47.436	-47.217	1587.5	34.333	7.1894
401	4	1669.6	1433.4	-52.749	1642.2	1173.8	-95.461	1784.1	1350.9	-50.833	1816.4	1201.5	-54.914	1757.1	1399.8	-266.6	1701.4	1369.3	139.09	1620.4	1338.9	61.506	1837.3	920.16	-136.43	1763.9	920.94	50.045	1657.3	954.57	-143.53	1629.9	964.53	-75.319	1797.2	987.57	-210.59	1690.5	991.29	68.973	1908.5	694.91	-206.82	1877	728.38	-216.49	1882.7	677.11	-224.22	1939.5	618.1	-252.65	1982.7	506.82	-173.44	NaN	NaN	NaN	1685.4	638.5	55.695	1707.7	670.12	62.775	1647.1	674.75	53.217	1687.4	573.17	87.724	1705.8	452.53	6.6634	NaN	NaN	NaN	1988.4	325.64	-203.96	2013.9	376.45	-183.07	1968.2	365.96	-202.92	2068.5	281.51	-214.99	2048.6	95.163	-176.48	2054.4	108.1	-88.114	1624.3	324.27	21.221	1663.4	353.22	5.8021	1622	377.28	26.059	1612.1	250.36	58.11	1502.4	109.24	0.83191	1510.9	125.11	-85.999	2005.5	61.626	-131.63	2063.3	78.069	-91.936	2062.7	70.125	-170.12	2176.2	98.011	-127.99	2170.1	90.823	-172.51	1450.1	124.33	-35.323	1497	90.941	-82.657	1499.8	83.366	-3.4897	1611.3	47.432	-47.291	1587.8	34.503	7.1686
402	4.01	1681.1	1432.1	-53.908	1653.4	1172.4	-96.46	1795.4	1349.2	-51.145	1827.3	1199.7	-54.667	1770	1397.6	-267.13	1711.2	1367.8	138.1	1630.7	1337.3	59.843	1848.8	918.31	-135.33	1774.1	919.78	50.668	1668.7	952.93	-143.87	1640.9	963.05	-75.906	1809.3	985.55	-209.99	1700.1	989.92	68.785	1919.8	693.3	-206.2	1888.5	726.97	-215.98	1893.7	675.32	-223.63	1950.2	617.09	-252.43	1992.9	504.82	-172.94	NaN	NaN	NaN	1693.6	637.32	55.952	1716.3	668.93	62.866	1655.4	674.06	53.911	1695	571.86	88.173	1712	451.07	6.8111	NaN	NaN	NaN	2002.2	323.65	-201.89	2026.7	375.75	-182.87	1980.7	363.55	-201.21	2082.9	280.68	-215	2068.7	95.569	-172.93	2075.6	109.14	-84.867	1628.9	323.79	21.037	1668.2	352.24	5.7859	1627.3	376.69	26.203	1615.8	249.71	57.947	1503.7	110.75	1.2475	1512.3	126.34	-85.868	2027.4	61.388	-127.37	2085.3	79.317	-88.597	2084	70.79	-166.51	2197.4	101.56	-127.36	2190.3	93.963	-171.6	1451.7	126.38	-35.01	1497.9	92.361	-82.272	1500.5	84.513	-3.5754	1611.7	47.499	-47.348	1587.9	34.567	7.0588
403	4.02	1692.8	1430.8	-55.142	1664.8	1170.9	-97.634	1806.7	1347.5	-51.511	1838.4	1198.1	-54.532	1783.1	1395.6	-267.89	1720.8	1366.4	137.19	1641.1	1336	58.204	1860.5	916.57	-134.3	1784.4	918.47	51.258	1680	951.09	-144.08	1652.1	961.43	-76.383	1821.3	983.53	-209.49	1710.7	988.9	68.789	1931.1	691.91	-205.81	1899.9	725.7	-215.42	1905.3	674.44	-222.66	1960.8	615.42	-251.67	2003.7	503.09	-172.5	NaN	NaN	NaN	1702.2	636.26	56.225	1725.2	667.68	62.824	1664.3	673.26	54.239	1703.6	570.94	88.526	1718.3	449.55	6.8936	NaN	NaN	NaN	2015.1	321.82	-199.82	2039.2	374.58	-181.91	1992.9	361.43	-199.02	2096.2	280.15	-214.2	2086.4	95.347	-169.84	2094.5	109.78	-82.092	1633.6	323.22	21.146	1673.3	351.14	5.8516	1632.8	376.13	26.513	1619.5	249.32	58.008	1505.1	112.16	1.693	1513.7	127.81	-85.483	2046.2	61.212	-123.25	2104.4	79.882	-85.554	2101.8	70.792	-163.57	2215.7	103.58	-126.41	2207.8	95.604	-170.47	1453.3	128.87	-34.401	1498.7	94.159	-81.671	1501.6	86.268	-3.0049	1612.1	47.541	-47.451	1588.5	34.997	7.1058
